PathFileType	4	(X/Y/Z)	/tmp/tmpjnq7zxqp/Me/MarkerData/jogging02_segment_0.trc
DataRate	CameraRate	NumFrames	NumMarkers	Units	OrigDataRate	OrigDataStartFrame	OrigNumFrames
100.093	100.093	10	39	m	100.093	671	1074
Frame#	Time	C7			CLAV			LANK			LASI			LBHD			LELB			LFHD			LFIN			LFRM			LHEE			LKNE			LPSI			LSHO			LTHI			LTIB			LTOE			LUPA			LWRA			LWRB			RANK			RASI			RBAK			RBHD			RELB			RFHD			RFIN			RFRM			RHEE			RKNE			RPSI			RSHO			RTHI			RTIB			RTOE			RUPA			RWRA			RWRB			STRN			T10		
		X1	Y1	Z1	X2	Y2	Z2	X3	Y3	Z3	X4	Y4	Z4	X5	Y5	Z5	X6	Y6	Z6	X7	Y7	Z7	X8	Y8	Z8	X9	Y9	Z9	X10	Y10	Z10	X11	Y11	Z11	X12	Y12	Z12	X13	Y13	Z13	X14	Y14	Z14	X15	Y15	Z15	X16	Y16	Z16	X17	Y17	Z17	X18	Y18	Z18	X19	Y19	Z19	X20	Y20	Z20	X21	Y21	Z21	X22	Y22	Z22	X23	Y23	Z23	X24	Y24	Z24	X25	Y25	Z25	X26	Y26	Z26	X27	Y27	Z27	X28	Y28	Z28	X29	Y29	Z29	X30	Y30	Z30	X31	Y31	Z31	X32	Y32	Z32	X33	Y33	Z33	X34	Y34	Z34	X35	Y35	Z35	X36	Y36	Z36	X37	Y37	Z37	X38	Y38	Z38	X39	Y39	Z39

672	6.70375	-0.147149	1.44099	0.0403331	-0.306578	1.35491	0.0265299	0.0752481	0.119819	0.121646	-0.195093	0.957958	0.18123	-0.282302	1.57881	0.125987	-0.285519	1.07476	0.277601	-0.411513	1.57574	0.100633	-0.495084	1.19809	0.0729048	-0.383283	1.07308	0.159917	0.158748	0.103926	0.0771447	-0.172967	0.433587	0.147409	-0.0565057	0.985582	0.0511678	-0.214167	1.41429	0.210459	-0.187603	0.62408	0.184213	-0.015924	0.238669	0.149252	-0.0696458	0.0627845	0.0474304	-0.267258	1.24742	0.285453	-0.397404	1.15899	0.0936616	-0.447913	1.10891	0.10444	-0.118746	0.168691	-0.100399	-0.208797	0.961675	-0.132115	-0.0739877	1.31748	-0.0729578	-0.266865	1.59386	-0.0224448	-0.0602518	1.15709	-0.262055	-0.39072	1.58304	-0.0270704	-0.316795	0.955732	-0.159082	-0.0981873	1.07905	-0.24631	-0.0428734	0.153357	-0.0284227	-0.362617	0.504543	-0.125894	-0.0564398	0.98214	-0.0136585	-0.206392	1.4317	-0.138243	-0.257777	0.815261	-0.160219	-0.270229	0.405709	-0.146535	-0.259381	0.0736817	-0.0750687	-0.105281	1.23653	-0.24429	-0.222793	1.02451	-0.151771	-0.216272	0.968577	-0.196772	-0.334798	1.19281	0.0266572	-0.0891972	1.20873	0.0371976
673	6.71374	-0.148704	1.44778	0.0404664	-0.307458	1.36181	0.0233474	0.0893792	0.126175	0.12214	-0.197465	0.963719	0.18045	-0.283149	1.58565	0.123193	-0.294268	1.08403	0.274851	-0.412275	1.58238	0.0973223	-0.495077	1.21275	0.0646968	-0.388192	1.08507	0.153898	0.173568	0.113463	0.0774402	-0.158984	0.440178	0.146467	-0.0589844	0.994219	0.0518496	-0.219318	1.42243	0.208624	-0.17998	0.62983	0.182808	-0.00106248	0.246225	0.149324	-0.0496548	0.0628002	0.0474744	-0.275715	1.25653	0.282733	-0.398882	1.17192	0.0882547	-0.450674	1.12249	0.0969202	-0.146222	0.157949	-0.101703	-0.208508	0.969823	-0.131175	-0.0731777	1.32546	-0.0705069	-0.267104	1.59997	-0.0252036	-0.0504482	1.16859	-0.260643	-0.390913	1.58904	-0.0303108	-0.308709	0.963941	-0.168128	-0.0882327	1.09013	-0.246841	-0.0714718	0.136266	-0.0306201	-0.363086	0.512916	-0.126432	-0.0574386	0.99002	-0.0128199	-0.204563	1.43833	-0.138845	-0.257812	0.82399	-0.161069	-0.278051	0.407023	-0.14785	-0.294204	0.0751258	-0.0746323	-0.0980928	1.24653	-0.243532	-0.215113	1.03314	-0.156706	-0.207038	0.977992	-0.202289	-0.335089	1.20034	0.0217792	-0.0902188	1.21667	0.0397339
674	6.72373	-0.150116	1.45426	0.0401377	-0.308407	1.36858	0.0202272	0.102406	0.133003	0.122465	-0.19979	0.969696	0.179489	-0.283936	1.59231	0.12033	-0.302332	1.09296	0.272074	-0.412953	1.58883	0.0939614	-0.494469	1.22631	0.056737	-0.392355	1.09639	0.148107	0.187344	0.123862	0.0775196	-0.1459	0.447196	0.145695	-0.0617751	1.0029	0.0522134	-0.22442	1.43031	0.206524	-0.172754	0.635814	0.181556	0.0127582	0.254145	0.14928	-0.0297051	0.0626939	0.0475888	-0.283748	1.26552	0.279835	-0.399793	1.18406	0.0831317	-0.452426	1.13525	0.0895713	-0.174261	0.147986	-0.103281	-0.207665	0.97807	-0.130583	-0.0726515	1.33317	-0.068331	-0.26732	1.6058	-0.0280465	-0.0416288	1.17968	-0.258915	-0.391054	1.59481	-0.0335972	-0.300998	0.97167	-0.176819	-0.0790127	1.10078	-0.247093	-0.101195	0.119837	-0.0329682	-0.362184	0.520274	-0.126861	-0.0590414	0.997896	-0.0122372	-0.20307	1.4446	-0.139561	-0.257741	0.832308	-0.16191	-0.285008	0.408069	-0.148923	-0.328646	0.0787336	-0.0741613	-0.0917616	1.25614	-0.24262	-0.208135	1.04148	-0.161304	-0.198234	0.986844	-0.207171	-0.335757	1.20776	0.0173086	-0.0913261	1.22464	0.0423835
675	6.73372	-0.151459	1.46031	0.0394609	-0.309387	1.37512	0.0172145	0.114521	0.140107	0.122454	-0.202007	0.975669	0.178381	-0.284674	1.5986	0.117469	-0.309701	1.10141	0.269324	-0.413556	1.59497	0.0905459	-0.493371	1.23861	0.0490297	-0.395907	1.10683	0.142623	0.199947	0.134801	0.0771716	-0.13396	0.454428	0.144805	-0.0647371	1.0114	0.0522241	-0.229373	1.43782	0.204192	-0.16597	0.641934	0.180293	0.0255486	0.262197	0.148813	-0.0101143	0.0625288	0.0479163	-0.291049	1.27401	0.276428	-0.400197	1.19527	0.0782848	-0.453419	1.14694	0.0824944	-0.202456	0.139036	-0.105285	-0.206348	0.986192	-0.130421	-0.072425	1.34054	-0.0664958	-0.267451	1.61123	-0.0309142	-0.0338717	1.19019	-0.256899	-0.391116	1.60022	-0.0369607	-0.29371	0.978808	-0.185084	-0.0706235	1.1108	-0.247085	-0.131106	0.104829	-0.0358485	-0.360094	0.526431	-0.127111	-0.0610939	1.00578	-0.0118447	-0.202103	1.45051	-0.140438	-0.257589	0.839893	-0.162757	-0.291146	0.408761	-0.15001	-0.361975	0.0845393	-0.0728993	-0.0862562	1.26526	-0.241586	-0.201938	1.0494	-0.165791	-0.189974	0.994972	-0.211374	-0.336845	1.21493	0.0133956	-0.0925023	1.23239	0.0450675
676	6.74372	-0.15282	1.46585	0.0385391	-0.31036	1.38126	0.0143069	0.12601	0.147286	0.122001	-0.204284	0.981434	0.177342	-0.285334	1.60437	0.114688	-0.316374	1.1093	0.266659	-0.414077	1.60071	0.0870993	-0.491828	1.24954	0.0415632	-0.398867	1.11622	0.13746	0.211407	0.146266	0.0765646	-0.123202	0.461473	0.143605	-0.0678335	1.01936	0.0518445	-0.234144	1.44484	0.201627	-0.159791	0.648017	0.178956	0.0374317	0.270128	0.148058	0.00894103	0.062319	0.0482263	-0.297596	1.28192	0.272769	-0.40017	1.20543	0.0737873	-0.45385	1.15734	0.0757692	-0.23053	0.131446	-0.107534	-0.204763	0.99391	-0.130695	-0.0725316	1.34753	-0.065022	-0.267496	1.61612	-0.0338136	-0.0270391	1.20003	-0.254819	-0.391083	1.60514	-0.0403584	-0.286924	0.985228	-0.192969	-0.0631048	1.12003	-0.246824	-0.160921	0.091416	-0.0391574	-0.356947	0.531209	-0.127169	-0.0633168	1.01331	-0.0117453	-0.201676	1.45599	-0.141429	-0.257352	0.846448	-0.163585	-0.296387	0.409025	-0.151139	-0.393323	0.0919722	-0.0711537	-0.0814692	1.27376	-0.240468	-0.19652	1.05675	-0.170072	-0.182424	1.00231	-0.214942	-0.338282	1.22187	0.0100161	-0.093727	1.2397	0.0477365
677	6.75371	-0.154228	1.47083	0.0374852	-0.311298	1.38688	0.0114966	0.136568	0.154521	0.121494	-0.206663	0.986787	0.176359	-0.285848	1.60944	0.11211	-0.322377	1.11652	0.26415	-0.414491	1.60586	0.0836304	-0.489922	1.25902	0.0343543	-0.401232	1.12445	0.132663	0.221619	0.158184	0.0757979	-0.113726	0.468084	0.142179	-0.0708905	1.02654	0.0511638	-0.238724	1.45118	0.19884	-0.15448	0.653706	0.177714	0.0478605	0.277823	0.147326	0.0272616	0.0622577	0.0483847	-0.303528	1.28917	0.26916	-0.399781	1.21448	0.0697712	-0.453706	1.1664	0.0694165	-0.257928	0.125554	-0.109455	-0.203299	1.00087	-0.131298	-0.0729266	1.35404	-0.0639322	-0.26738	1.62027	-0.0367106	-0.0212439	1.20893	-0.252644	-0.390912	1.60946	-0.0437592	-0.280768	0.991013	-0.200269	-0.0564429	1.12831	-0.24639	-0.190453	0.0797058	-0.0424328	-0.352868	0.534474	-0.127155	-0.0657518	1.02017	-0.011889	-0.201491	1.46082	-0.142396	-0.25702	0.851781	-0.164414	-0.3006	0.408773	-0.152228	-0.422458	0.100723	-0.0692505	-0.0773317	1.28152	-0.239359	-0.192104	1.06345	-0.174069	-0.175613	1.00879	-0.218035	-0.340046	1.22842	0.00728603	-0.0950107	1.24646	0.0502761
678	6.7637	-0.155643	1.47519	0.0363814	-0.312164	1.39182	0.00877646	0.146344	0.161853	0.120946	-0.209013	0.991613	0.175225	-0.286214	1.61368	0.109238	-0.327727	1.12294	0.261827	-0.41477	1.61028	0.0801414	-0.487711	1.26698	0.0274166	-0.402769	1.1317	0.128122	0.230702	0.170314	0.0750043	-0.105743	0.474081	0.140709	-0.0739213	1.03283	0.0503242	-0.242922	1.45661	0.195855	-0.150376	0.658769	0.176668	0.0571719	0.285238	0.146399	0.0448878	0.062485	0.0483108	-0.30891	1.2956	0.265761	-0.399157	1.22235	0.0663157	-0.452983	1.17405	0.0634223	-0.284105	0.121322	-0.111062	-0.202537	1.00662	-0.131987	-0.0735702	1.35994	-0.0631802	-0.26713	1.62357	-0.0396134	-0.0163606	1.21666	-0.25052	-0.390584	1.61308	-0.0471666	-0.275424	0.996072	-0.207038	-0.0506096	1.13544	-0.245937	-0.21909	0.0700622	-0.0453751	-0.348094	0.536334	-0.127075	-0.0683362	1.02625	-0.0121682	-0.201481	1.46487	-0.143337	-0.25658	0.855728	-0.165275	-0.303911	0.407927	-0.153172	-0.449006	0.110449	-0.0672377	-0.0735742	1.28845	-0.238217	-0.188572	1.06935	-0.177647	-0.169727	1.0144	-0.220812	-0.342064	1.23437	0.00514873	-0.096387	1.25253	0.0525255
679	6.77369	-0.15706	1.47887	0.0352146	-0.31291	1.39598	0.00612464	0.155628	0.169253	0.120333	-0.211449	0.995764	0.173969	-0.286502	1.617	0.106055	-0.332324	1.12842	0.259661	-0.41492	1.61389	0.0766535	-0.485253	1.27331	0.0207655	-0.403437	1.13782	0.123866	0.239025	0.182586	0.0740565	-0.0994663	0.479245	0.139485	-0.0768594	1.0381	0.0494298	-0.246636	1.46105	0.192808	-0.147393	0.663095	0.175565	0.065543	0.292347	0.145473	0.061718	0.0630591	0.0478788	-0.313515	1.30102	0.262385	-0.398308	1.22862	0.0627262	-0.451885	1.18016	0.0578446	-0.308366	0.118782	-0.11236	-0.202991	1.0108	-0.132482	-0.0744011	1.36511	-0.062706	-0.266764	1.62597	-0.0424767	-0.012261	1.22301	-0.248636	-0.390165	1.61586	-0.0505574	-0.271066	1.00038	-0.21313	-0.0456221	1.14126	-0.245575	-0.245689	0.0629071	-0.0480614	-0.342877	0.536791	-0.127044	-0.0708982	1.03165	-0.0125106	-0.201735	1.46812	-0.144357	-0.256108	0.858183	-0.166148	-0.306641	0.406582	-0.1539	-0.47253	0.120654	-0.0652515	-0.0703543	1.29439	-0.237396	-0.184958	1.07389	-0.180625	-0.164952	1.01908	-0.223396	-0.344231	1.23954	0.00344491	-0.0978436	1.2578	0.0542667
680	6.78368	-0.158429	1.48179	0.033963	-0.313653	1.39929	0.00353914	0.164667	0.176678	0.119656	-0.213998	0.999136	0.172613	-0.286703	1.61938	0.103093	-0.336111	1.13284	0.257619	-0.414995	1.61664	0.073185	-0.482658	1.27788	0.0144075	-0.403746	1.14234	0.119964	0.246744	0.19488	0.0727985	-0.0948794	0.483325	0.138554	-0.0796063	1.04218	0.0485727	-0.249803	1.4645	0.189798	-0.145583	0.666495	0.174476	0.0730937	0.29899	0.14455	0.0777674	0.0639938	0.0470989	-0.317351	1.30533	0.259057	-0.397332	1.23337	0.0592309	-0.450521	1.18456	0.0526924	-0.32986	0.117868	-0.113432	-0.20456	1.01334	-0.132708	-0.075402	1.36938	-0.0624533	-0.266264	1.62747	-0.0453215	-0.00885969	1.22785	-0.247149	-0.38967	1.6178	-0.0539105	-0.267825	1.00399	-0.218326	-0.0415585	1.14566	-0.245447	-0.269518	0.0581143	-0.0501475	-0.337531	0.535973	-0.126975	-0.0734434	1.03642	-0.0129148	-0.202156	1.47052	-0.145487	-0.255569	0.859107	-0.167016	-0.30912	0.405112	-0.15434	-0.492609	0.130649	-0.0634752	-0.0676705	1.29916	-0.236811	-0.182177	1.07733	-0.183464	-0.161384	1.02281	-0.225867	-0.34635	1.2436	0.0017287	-0.0991948	1.26221	0.055396
681	6.79367	-0.159636	1.48385	0.0326467	-0.314348	1.40167	0.00101877	0.173397	0.184098	0.118929	-0.2166	1.00164	0.171156	-0.286825	1.62089	0.100357	-0.339046	1.1361	0.255725	-0.415011	1.61855	0.0697527	-0.480047	1.28058	0.00836449	-0.403705	1.14523	0.116429	0.253853	0.207135	0.0714407	-0.0919557	0.486041	0.137821	-0.082009	1.0451	0.0478402	-0.252359	1.46696	0.186922	-0.145088	0.66871	0.173648	0.0799869	0.305072	0.143623	0.0930372	0.0653598	0.04613	-0.320386	1.30848	0.255843	-0.396319	1.2366	0.056031	-0.448958	1.18725	0.0480423	-0.348108	0.118085	-0.114227	-0.206113	1.01471	-0.133052	-0.0764738	1.37257	-0.0624172	-0.265664	1.62813	-0.0481251	-0.00612326	1.23106	-0.246146	-0.389103	1.61894	-0.0572556	-0.265789	1.00677	-0.222777	-0.038524	1.14863	-0.245582	-0.289832	0.0552205	-0.0516231	-0.33259	0.534166	-0.126709	-0.0760729	1.04034	-0.0134128	-0.202581	1.47194	-0.146711	-0.254949	0.858499	-0.167913	-0.311497	0.403914	-0.154442	-0.508944	0.13974	-0.0619804	-0.0653747	1.3026	-0.236548	-0.180729	1.07988	-0.186389	-0.159113	1.02549	-0.228532	-0.348294	1.24648	-5.72076e-05	-0.100281	1.26568	0.0558719
